<!DOCTYPE svg PUBLIC "-//W3C//DTD SVG 1.1//EN" "http://www.w3.org/Graphics/SVG/1.1/DTD/svg11.dtd">
<!-- Uploaded to: SVG Repo, www.svgrepo.com, Transformed by: SVG Repo Mixer Tools -->
<svg fill="#000000" width="256px" height="256px" viewBox="0 0 24 24" id="database-error" data-name="Line Color" xmlns="http://www.w3.org/2000/svg" class="icon line-color">
<g id="SVGRepo_bgCarrier" stroke-width="0"/>
<g id="SVGRepo_tracerCarrier" stroke-linecap="round" stroke-linejoin="round"/>
<g id="SVGRepo_iconCarrier">
<line id="secondary-upstroke" x1="17.05" y1="20.5" x2="16.95" y2="20.5" style="fill: none; stroke-linecap: round; stroke-linejoin: round; stroke-width: 2; stroke: #000000;"/>
<line id="secondary" x1="17" y1="13" x2="17" y2="16" style="fill: none; stroke-linecap: round; stroke-linejoin: round; stroke-width: 2; stroke: #000000;"/>
<path id="primary" d="M21,12V10a1,1,0,0,0-1-1H4a1,1,0,0,0-1,1v4a1,1,0,0,0,1,1h8" style="fill: none; stroke: #000000; stroke-linecap: round; stroke-linejoin: round; stroke-width: 2;"/>
<path id="primary-2" data-name="primary" d="M12,15H4a1,1,0,0,0-1,1v4a1,1,0,0,0,1,1h8" style="fill: none; stroke: #000000; stroke-linecap: round; stroke-linejoin: round; stroke-width: 2;"/>
<rect id="primary-3" data-name="primary" x="3" y="3" width="18" height="6" rx="1" style="fill: none; stroke: #000000; stroke-linecap: round; stroke-linejoin: round; stroke-width: 2;"/>
</g>
</svg>